HIERARCHY
ROOT Hips
{
 OFFSET 0.000000 0.000000 0.000000
 CHANNELS 6 Xposition Yposition Zposition Yrotation Xrotation Zrotation
 JOINT Chest
 {
  OFFSET 0.000000 10.383400 0.001500
  CHANNELS 3 Yrotation Xrotation Zrotation
  JOINT Chest2
  {
   OFFSET 0.000000 10.418200 -0.003100
   CHANNELS 3 Yrotation Xrotation Zrotation
   JOINT Chest3
   {
    OFFSET 0.000000 10.375100 0.000000
    CHANNELS 3 Yrotation Xrotation Zrotation
    JOINT Chest4
    {
     OFFSET 0.000000 10.364600 0.000000
     CHANNELS 3 Yrotation Xrotation Zrotation
     JOINT Neck
     {
      OFFSET 0.000000 15.642200 0.000000
      CHANNELS 3 Yrotation Xrotation Zrotation
      JOINT Head
      {
       OFFSET 0.000000 9.697300 -0.006500
       CHANNELS 3 Yrotation Xrotation Zrotation
       End Site
       {
        OFFSET 0.000000 18.492200 -0.003400
       }
      }
     }
     JOINT RightCollar
     {
      OFFSET -3.166800 10.349300 0.000000
      CHANNELS 3 Yrotation Xrotation Zrotation
      JOINT RightShoulder
      {
       OFFSET -14.729700 0.000000 0.000000
       CHANNELS 3 Yrotation Xrotation Zrotation
       JOINT RightElbow
       {
        OFFSET 0.000000 -32.224300 0.000000
        CHANNELS 3 Yrotation Xrotation Zrotation
        JOINT RightWrist
        {
         OFFSET 0.000000 -26.084100 0.000000
         CHANNELS 3 Yrotation Xrotation Zrotation
         End Site
         {
          OFFSET 0.000000 -19.319400 0.000000
         }
        }
       }
      }
     }
     JOINT LeftCollar
     {
      OFFSET 3.166800 10.349300 0.000000
      CHANNELS 3 Yrotation Xrotation Zrotation
      JOINT LeftShoulder
      {
       OFFSET 14.729700 0.000000 0.000000
       CHANNELS 3 Yrotation Xrotation Zrotation
       JOINT LeftElbow
       {
        OFFSET 0.000000 -32.224300 0.000000
        CHANNELS 3 Yrotation Xrotation Zrotation
        JOINT LeftWrist
        {
         OFFSET 0.000000 -26.084100 0.000000
         CHANNELS 3 Yrotation Xrotation Zrotation
         End Site
         {
          OFFSET 0.000000 -19.319400 0.000000
         }
        }
       }
      }
     }
    }
   }
  }
 }
 JOINT RightHip
 {
  OFFSET -8.428900 -0.007500 -0.000800
  CHANNELS 3 Yrotation Xrotation Zrotation
  JOINT RightKnee
  {
   OFFSET 0.000000 -43.834600 0.000700
   CHANNELS 3 Yrotation Xrotation Zrotation
   JOINT RightAnkle
   {
    OFFSET 0.000000 -42.757000 0.001200
    CHANNELS 3 Yrotation Xrotation Zrotation
    JOINT RightToe
    {
     OFFSET 0.000000 -6.946900 15.649300
     CHANNELS 3 Yrotation Xrotation Zrotation
     End Site
     {
      OFFSET 0.000000 -1.580800 6.825800
     }
    }
   }
  }
 }
 JOINT LeftHip
 {
  OFFSET 8.428900 -0.007500 -0.000800
  CHANNELS 3 Yrotation Xrotation Zrotation
  JOINT LeftKnee
  {
   OFFSET 0.000000 -43.834600 0.000700
   CHANNELS 3 Yrotation Xrotation Zrotation
   JOINT LeftAnkle
   {
    OFFSET 0.000000 -42.757000 0.001200
    CHANNELS 3 Yrotation Xrotation Zrotation
    JOINT LeftToe
    {
     OFFSET 0.000000 -6.946900 15.649300
     CHANNELS 3 Yrotation Xrotation Zrotation
     End Site
     {
      OFFSET 0.000000 -1.580800 6.825800
     }
    }
   }
  }
 }
}
MOTION
Frames: 16
Frame Time: 0.008333
0.000000 93.354300 0.000000 0.000000 -5.767877 0.000000 0.000000 11.653817 0.000000 0.000000 -5.885947 0.000000 0.000000 -0.000000 0.000000 0.000000 -0.000000 0.000000 0.000000 12.528835 0.000000 0.000000 0.711642 0.000000 0.000000 -0.000000 0.000000 0.000000 0.000000 -90.000000 0.000000 -2.309062 0.000000 0.000000 2.309062 0.000000 0.000000 -0.000000 0.000000 0.000000 -0.000000 90.000000 0.000000 -2.309062 0.000000 0.000000 2.309062 0.000000 0.000000 8.520406 0.000000 0.000000 1.905762 0.000000 -0.000000 -4.658285 0.000000 0.000000 -0.000000 0.000000 0.000000 8.520406 0.000000 0.000000 1.905762 0.000000 -0.000000 -4.658285 0.000000 0.000000 -0.000000 0.000000
0.335742 151.108938 -9.059699 175.052215 -14.399595 -3.569741 -0.830844 13.996839 2.270052 -0.093310 1.206201 0.202073 -0.161200 2.033406 0.340306 -0.768208 12.587822 2.039639 -0.785593 14.188259 -1.513203 -0.473640 -10.842741 -1.397531 4.597071 -2.368618 1.110262 17.242283 -17.631432 -12.329377 51.156048 -42.080955 -26.713309 17.802644 1.426866 -23.524677 -6.084923 -0.220732 -1.309713 -1.223342 -20.636685 6.136981 -18.362361 -52.178058 -1.380371 -13.070536 5.948284 16.608286 3.934738 -54.196405 8.785773 -86.929515 83.941130 -84.305471 -1.911418 -19.795925 2.267235 -0.008921 0.006920 0.001329 2.913872 -53.684536 -5.645990 97.771078 80.042406 104.232675 8.816720 -22.064324 -9.500692 0.003594 -0.002851 0.008958
-0.026803 143.177624 -8.116422 175.047065 -14.403404 -3.568342 -0.833172 13.994785 2.267572 -0.093434 1.205769 0.202249 -0.156661 2.032492 0.339818 -0.772893 12.586094 2.041899 -0.778751 14.203875 -1.515381 -0.467989 -10.810846 -1.399884 4.614426 -2.348323 1.105685 17.238205 -17.637080 -12.333635 51.140789 -42.088856 -26.708323 17.802159 1.423190 -23.532658 -6.076481 -0.205114 -1.317596 -1.234209 -20.640032 6.135612 -18.340177 -52.183520 -1.372877 -13.079761 5.948432 16.585042 3.947734 -54.189077 8.778675 -86.897772 83.944620 -84.271409 -1.915831 -19.792336 2.268530 -0.006858 0.003246 -0.003045 2.925118 -53.680517 -5.648631 97.772655 80.043832 104.234722 8.826306 -22.066917 -9.506156 0.005444 -0.002415 0.002416
-0.324675 136.645941 -7.339281 175.045861 -14.405214 -3.571904 -0.833247 13.990324 2.268111 -0.093183 1.205323 0.202367 -0.155247 2.034207 0.343048 -0.772661 12.580856 2.040980 -0.778099 14.219499 -1.513382 -0.467736 -10.810139 -1.401675 4.630440 -2.328774 1.109421 17.226543 -17.642404 -12.341505 51.087264 -42.109920 -26.668120 17.809754 1.406188 -23.564411 -6.086048 -0.184939 -1.326175 -1.251267 -20.646319 6.141187 -18.329407 -52.182299 -1.355915 -13.077310 5.947475 16.578861 3.945391 -54.183546 8.784454 -86.858842 83.944933 -84.232870 -1.916284 -19.787939 2.267669 -0.005073 -0.000956 -0.002252 2.921951 -53.685280 -5.642575 97.819703 80.042577 104.279844 8.834471 -22.064248 -9.505978 0.006372 -0.003206 0.002828
-0.540467 131.928416 -6.777374 175.044667 -14.403082 -3.570935 -0.832281 13.983293 2.269708 -0.093648 1.201568 0.203385 -0.155298 2.041184 0.340347 -0.773588 12.562951 2.045504 -0.779205 14.240714 -1.518219 -0.466335 -10.787496 -1.399845 4.646389 -2.301332 1.110356 17.215154 -17.644892 -12.350046 50.997596 -42.151193 -26.605142 17.808603 1.365609 -23.660228 -6.086615 -0.163602 -1.335501 -1.258074 -20.648389 6.142584 -18.307225 -52.188360 -1.358017 -13.085011 5.951139 16.566633 3.948181 -54.182014 8.783339 -86.796494 83.948058 -84.168721 -1.922390 -19.782880 2.266605 -0.001372 -0.003234 -0.000609 2.922256 -53.689409 -5.642278 97.837448 80.042554 104.296173 8.822984 -22.066608 -9.497921 0.004311 -0.001342 0.001914
-0.677624 128.948894 -6.422380 175.044929 -14.401611 -3.565676 -0.834549 13.979186 2.264591 -0.093222 1.201665 0.204124 -0.155338 2.037748 0.339573 -0.771629 12.561576 2.046574 -0.781645 14.253971 -1.516930 -0.470833 -10.744607 -1.392773 4.648417 -2.291690 1.111231 17.211048 -17.640920 -12.357744 50.983493 -42.164829 -26.596616 17.791476 1.345807 -23.702544 -6.089110 -0.152990 -1.340018 -1.287105 -20.662583 6.150799 -18.245384 -52.185233 -1.377871 -13.096261 5.962686 16.538043 3.955579 -54.180883 8.774952 -86.808090 83.952899 -84.182233 -1.929338 -19.784828 2.268906 -0.001188 -0.004937 -0.000527 2.926357 -53.692572 -5.648788 97.853462 80.042571 104.310920 8.798908 -22.069152 -9.490688 -0.000552 -0.000483 -0.000245
-0.753268 127.310108 -6.226431 175.044726 -14.398557 -3.561713 -0.835656 13.975639 2.263004 -0.093067 1.200832 0.202222 -0.155408 2.036842 0.341234 -0.770467 12.560629 2.045046 -0.782294 14.274910 -1.511154 -0.473517 -10.744280 -1.394256 4.672709 -2.279865 1.121202 17.186003 -17.638515 -12.370527 50.940838 -42.193111 -26.575591 17.825946 1.341372 -23.713139 -6.086857 -0.144576 -1.352716 -1.312892 -20.679124 6.167234 -18.220437 -52.176283 -1.384491 -13.096499 5.967880 16.533621 3.961120 -54.181734 8.769175 -86.816122 83.955742 -84.191274 -1.932653 -19.786683 2.269991 -0.000890 -0.005850 -0.000395 2.927161 -53.696316 -5.651309 97.853786 80.044792 104.309920 8.789047 -22.069606 -9.488243 -0.000281 0.000337 -0.000125
-0.788433 126.530045 -6.133140 175.039007 -14.401007 -3.563008 -0.829832 13.971986 2.264605 -0.092553 1.204673 0.203203 -0.154288 2.034069 0.341127 -0.768737 12.561884 2.045563 -0.783066 14.286556 -1.508000 -0.476212 -10.746444 -1.395044 4.678303 -2.275213 1.124564 17.178251 -17.637450 -12.373125 50.891659 -42.215792 -26.546227 17.794080 1.279544 -23.832258 -6.090061 -0.140452 -1.359353 -1.328065 -20.689065 6.176702 -18.205579 -52.167101 -1.387779 -13.091809 5.970484 16.533206 3.960895 -54.176881 8.779066 -86.797041 83.953420 -84.174201 -1.930329 -19.784185 2.265712 0.000107 -0.005030 0.000047 2.916908 -53.694275 -5.639192 97.875825 80.044793 104.333887 8.779353 -22.073900 -9.493214 0.001203 0.000924 0.000534
-0.802315 126.211197 -6.094463 175.035568 -14.403826 -3.566282 -0.825547 13.972200 2.267872 -0.092469 1.201860 0.202218 -0.153926 2.033493 0.341159 -0.766274 12.560051 2.045862 -0.780239 14.302842 -1.502764 -0.485311 -10.730412 -1.388669 4.684039 -2.266648 1.131076 17.173943 -17.632031 -12.380199 50.760119 -42.263194 -26.462385 17.830566 1.227188 -23.938196 -6.094175 -0.130501 -1.366114 -1.333389 -20.694078 6.186091 -18.186030 -52.172245 -1.393113 -13.084520 5.977292 16.512913 3.958751 -54.172577 8.787972 -86.776677 83.951182 -84.152356 -1.928646 -19.782010 2.264068 0.000289 -0.006035 0.000128 2.905273 -53.692759 -5.625507 97.893065 80.045397 104.346719 8.792303 -22.075234 -9.501148 0.004307 0.001385 0.001912
-0.807858 126.100646 -6.080850 175.034478 -14.409459 -3.563760 -0.818158 13.963565 2.268549 -0.094336 1.208363 0.200981 -0.153134 2.033131 0.341384 -0.760466 12.559578 2.047780 -0.786043 14.319621 -1.498196 -0.486547 -10.696109 -1.381637 4.702475 -2.256634 1.140005 17.150627 -17.623860 -12.397235 50.674849 -42.297397 -26.408100 17.832274 1.177498 -24.043253 -6.106985 -0.121480 -1.371173 -1.337720 -20.706241 6.195789 -18.147817 -52.179749 -1.412535 -13.072462 5.988185 16.494233 3.964159 -54.165425 8.786033 -86.772390 83.952142 -84.147744 -1.931508 -19.781773 2.265475 0.000518 -0.006556 0.000230 2.901693 -53.688577 -5.622948 97.905697 80.051606 104.354342 8.789285 -22.072217 -9.496131 0.001207 0.002870 0.000536
-0.808991 126.069008 -6.076705 175.031424 -14.418328 -3.565553 -0.812152 13.968834 2.272775 -0.088361 1.197427 0.203650 -0.159602 2.041562 0.338400 -0.757628 12.560492 2.050186 -0.784624 14.332231 -1.495389 -0.490274 -10.672889 -1.376535 4.719002 -2.252525 1.146966 17.150144 -17.614629 -12.406701 50.565251 -42.326738 -26.341430 17.834461 1.124045 -24.172124 -6.112082 -0.116371 -1.379882 -1.346806 -20.723179 6.202710 -18.121222 -52.170433 -1.430760 -13.072194 5.993442 16.487301 3.963858 -54.155196 8.794089 -86.755531 83.953270 -84.132392 -1.933593 -19.778692 2.267097 -0.000481 -0.006918 -0.000214 2.894307 -53.681396 -5.614483 97.944340 80.048880 104.392357 8.789909 -22.076171 -9.500232 0.001454 0.002857 0.000646
-0.810182 126.061792 -6.074538 175.033860 -14.422829 -3.563158 -0.811506 13.969845 2.272849 -0.088696 1.196502 0.202184 -0.149369 2.026510 0.341711 -0.749483 12.557552 2.051528 -0.798901 14.358456 -1.491159 -0.494163 -10.655717 -1.368934 4.710711 -2.233118 1.154432 17.146417 -17.607798 -12.413902 50.437835 -42.364646 -26.248462 17.835402 1.064406 -24.324511 -6.129270 -0.097299 -1.397810 -1.370651 -20.763072 6.216064 -18.095865 -52.130382 -1.449786 -13.072535 5.996959 16.484343 3.964866 -54.149465 8.791395 -86.743583 83.952104 -84.121373 -1.928527 -19.774158 2.262994 -0.000376 -0.006869 -0.000167 2.888425 -53.678203 -5.613576 97.961155 80.044342 104.406592 8.781353 -22.079089 -9.500194 0.001038 0.003310 0.000461
-0.811128 126.061087 -6.073470 175.033946 -14.431608 -3.560419 -0.804246 13.954337 2.272104 -0.094140 1.215306 0.201100 -0.146696 2.017091 0.342780 -0.749516 12.565008 2.050505 -0.794070 14.365132 -1.482412 -0.497800 -10.641458 -1.364690 4.710015 -2.227167 1.158798 17.160274 -17.603190 -12.424167 50.272170 -42.410496 -26.131142 17.833051 0.996942 -24.500438 -6.129615 -0.097270 -1.430328 -1.398239 -20.776700 6.252773 -18.072628 -52.113070 -1.467591 -13.072634 6.002636 16.482451 3.965902 -54.139431 8.790649 -86.748032 83.954592 -84.124928 -1.930270 -19.774595 2.259569 0.000645 -0.007657 0.000286 2.884206 -53.672766 -5.611121 97.988070 80.043269 104.430111 8.776688 -22.076406 -9.502720 -0.000616 0.003569 -0.000273
-0.812151 126.061773 -6.072316 175.027077 -14.441802 -3.556030 -0.791073 13.948134 2.272019 -0.099027 1.217469 0.201135 -0.141620 2.013044 0.342470 -0.751592 12.573945 2.049767 -0.788659 14.367397 -1.471408 -0.497586 -10.626729 -1.354199 4.726253 -2.225027 1.166898 17.156817 -17.593743 -12.434380 50.085577 -42.460272 -26.000594 17.828901 0.918093 -24.700171 -6.133816 -0.089950 -1.435659 -1.405070 -20.783408 6.259287 -18.040135 -52.110969 -1.491913 -13.051254 6.023085 16.462539 3.969726 -54.126116 8.792085 -86.725426 83.955531 -84.105140 -1.929186 -19.776015 2.257731 -0.000130 -0.006504 -0.000058 2.883722 -53.666449 -5.606243 98.025385 80.040541 104.462745 8.775118 -22.074762 -9.506363 -0.001294 0.003570 -0.000574
-0.813500 126.063253 -6.072791 175.046430 -14.462173 -3.556208 -0.800309 13.951600 2.269820 -0.100453 1.217710 0.201964 -0.140858 2.010491 0.341410 -0.753702 12.572128 2.051568 -0.787746 14.381226 -1.463866 -0.486728 -10.618542 -1.338240 4.744562 -2.204200 1.178482 17.140344 -17.590016 -12.459646 49.880827 -42.527069 -25.848127 17.820930 0.822265 -24.922117 -6.140861 -0.075482 -1.466764 -1.439189 -20.810329 6.306332 -17.968650 -52.086637 -1.552137 -13.041949 6.037748 16.454205 3.954211 -54.102711 8.787202 -86.764333 83.958310 -84.142804 -1.925937 -19.770554 2.255286 -0.000154 -0.006378 -0.000068 2.843610 -53.656792 -5.596243 98.118081 80.033953 104.540671 8.789091 -22.063933 -9.513092 -0.004320 -0.000195 -0.001918
-0.814401 126.064299 -6.070292 175.050023 -14.470219 -3.556737 -0.795527 13.945020 2.271231 -0.099315 1.214813 0.202513 -0.141421 2.003948 0.341076 -0.756796 12.573172 2.050670 -0.790555 14.400838 -1.459351 -0.459909 -10.628194 -1.330570 4.761628 -2.189501 1.194187 17.106107 -17.586297 -12.482384 49.677168 -42.599153 -25.682951 17.800083 0.712249 -25.162833 -6.147906 -0.080099 -1.546062 -1.499829 -20.825246 6.412300 -17.878427 -52.055960 -1.634172 -13.021860 6.056910 16.450499 3.949763 -54.093833 8.786045 -86.815580 83.953784 -84.185494 -1.917807 -19.769920 2.245302 0.003442 -0.005912 0.001528 2.825848 -53.657101 -5.584646 98.203057 80.034117 104.618146 8.802000 -22.056382 -9.520645 -0.005078 0.000609 -0.002254
